<?xml version="1.0" encoding="UTF-8" standalone="no"?>
<svg
   version="1.1"
   width="256"
   height="256"
   viewBox="0 0 256 256"
   xml:space="preserve"
   id="svg1"
   sodipodi:docname="user3.svg"
   inkscape:version="1.3.2 (091e20e, 2023-11-25, custom)"
   xmlns:inkscape="http://www.inkscape.org/namespaces/inkscape"
   xmlns:sodipodi="http://sodipodi.sourceforge.net/DTD/sodipodi-0.dtd"
   xmlns="http://www.w3.org/2000/svg"
   xmlns:svg="http://www.w3.org/2000/svg"><sodipodi:namedview
   id="namedview1"
   pagecolor="#ffffff"
   bordercolor="#000000"
   borderopacity="0.25"
   inkscape:showpageshadow="2"
   inkscape:pageopacity="0.0"
   inkscape:pagecheckerboard="0"
   inkscape:deskcolor="#d1d1d1"
   showgrid="false"
   inkscape:zoom="3.5117188"
   inkscape:cx="127.85762"
   inkscape:cy="128"
   inkscape:window-width="1920"
   inkscape:window-height="1137"
   inkscape:window-x="-8"
   inkscape:window-y="-8"
   inkscape:window-maximized="1"
   inkscape:current-layer="g1" />

<defs
   id="defs1">
</defs>
<g
   style="stroke: none; stroke-width: 0; stroke-dasharray: none; stroke-linecap: butt; stroke-linejoin: miter; stroke-miterlimit: 10; fill: none; fill-rule: nonzero; opacity: 1;"
   transform="translate(1.4065934065934016 1.4065934065934016) scale(2.81 2.81)"
   id="g1">
	<circle
   cx="45"
   cy="45"
   r="45"
   style="opacity:1;mix-blend-mode:normal;fill:#9a6e49;fill-rule:nonzero;stroke:none;stroke-width:1;stroke-linecap:butt;stroke-linejoin:miter;stroke-miterlimit:10;stroke-dasharray:none;fill-opacity:1"
   id="circle1" />
	<path
   d="M 53.026 45.823 c 3.572 -2.527 5.916 -6.682 5.916 -11.381 C 58.941 26.754 52.688 20.5 45 20.5 s -13.942 6.254 -13.942 13.942 c 0 4.699 2.344 8.854 5.916 11.381 C 28.172 49.092 21.883 57.575 21.883 67.5 c 0 1.104 0.896 2 2 2 s 2 -0.896 2 -2 c 0 -10.541 8.576 -19.116 19.117 -19.116 S 64.116 56.959 64.116 67.5 c 0 1.104 0.896 2 2 2 s 2 -0.896 2 -2 C 68.116 57.575 61.827 49.092 53.026 45.823 z M 35.058 34.442 c 0 -5.482 4.46 -9.942 9.942 -9.942 c 5.481 0 9.941 4.46 9.941 9.942 s -4.46 9.942 -9.941 9.942 C 39.518 44.384 35.058 39.924 35.058 34.442 z"
   style="stroke: none; stroke-width: 1; stroke-dasharray: none; stroke-linecap: butt; stroke-linejoin: miter; stroke-miterlimit: 10; fill: rgb(255,255,255); fill-rule: nonzero; opacity: 1;"
   transform=" matrix(1 0 0 1 0 0) "
   stroke-linecap="round"
   id="path1" />
</g>
</svg>
